<?xml version="1.0" standalone="no"?>
<!DOCTYPE svg PUBLIC "-//W3C//DTD SVG 20010904//EN"
 "http://www.w3.org/TR/2001/REC-SVG-20010904/DTD/svg10.dtd">
<svg version="1.0" xmlns="http://www.w3.org/2000/svg"
 width="2000.000000pt" height="2000.000000pt" viewBox="0 0 2000.000000 2000.000000"
 preserveAspectRatio="xMidYMid meet">
<metadata>
Created by potrace 1.11, written by Peter Selinger 2001-2013
</metadata>
<g transform="translate(0.000000,2000.000000) scale(0.100000,-0.100000)"
fill="#000000" stroke="none">
<path d="M577 18711 c-10 -4 -49 -37 -86 -74 -46 -45 -76 -67 -92 -67 -13 0
-55 14 -94 30 -123 53 -140 40 -137 -110 1 -79 16 -177 47 -294 41 -163 197
-510 309 -691 31 -49 59 -97 63 -105 11 -26 143 -220 237 -350 147 -203 371
-478 513 -630 23 -25 51 -56 63 -70 57 -66 175 -194 270 -294 58 -60 121 -126
140 -146 19 -21 50 -53 69 -73 l33 -35 -60 -119 c-33 -65 -74 -152 -91 -193
-18 -41 -36 -84 -41 -95 -8 -18 -56 -168 -66 -205 -13 -51 -43 -191 -48 -222
-3 -21 -9 -54 -12 -73 -29 -184 -24 -499 11 -685 10 -50 13 -66 24 -110 112
-431 360 -752 715 -925 100 -49 230 -94 311 -108 17 -3 50 -10 75 -15 50 -9
483 -9 568 2 28 3 76 9 105 12 28 3 59 7 67 9 8 2 35 7 60 10 153 21 413 89
555 145 92 36 266 126 331 171 l45 30 52 -43 c29 -24 60 -50 69 -58 9 -8 132
-112 272 -230 140 -118 255 -219 255 -225 1 -7 -159 -10 -457 -11 -431 -2
-1526 -13 -1767 -19 -212 -5 -577 -16 -653 -20 -42 -2 -142 -6 -222 -10 -207
-9 -378 -20 -460 -30 -19 -2 -78 -7 -130 -11 -52 -3 -104 -8 -115 -10 -11 -3
-38 -6 -60 -8 -34 -4 -122 -18 -190 -31 -136 -27 -219 -66 -250 -117 -15 -27
-15 -30 25 -109 23 -48 40 -97 40 -116 0 -21 -16 -65 -39 -109 -34 -65 -38
-79 -29 -100 27 -58 165 -97 453 -129 107 -11 132 -13 395 -30 175 -12 582
-25 1235 -41 116 -3 845 -7 1620 -9 1687 -4 1643 -4 1652 -18 3 -6 7 -29 9
-51 1 -23 5 -104 8 -181 4 -77 9 -159 11 -183 2 -24 6 -107 10 -185 3 -78 8
-167 10 -197 2 -30 6 -111 10 -180 3 -69 8 -156 10 -195 3 -38 7 -117 10 -175
3 -58 7 -139 10 -180 2 -41 7 -129 10 -195 3 -66 7 -156 10 -200 5 -82 10
-173 20 -350 3 -55 7 -134 10 -175 2 -41 7 -131 10 -200 4 -69 8 -156 11 -195
2 -38 6 -122 9 -185 3 -63 7 -146 10 -185 2 -38 7 -128 10 -200 3 -71 8 -157
10 -190 2 -33 7 -118 10 -190 4 -71 8 -150 10 -175 l2 -46 -181 2 c-100 1
-307 5 -461 8 -1284 27 -3414 27 -4140 1 -167 -6 -383 -16 -420 -20 -22 -2
-74 -7 -115 -10 -146 -11 -204 -21 -242 -41 -28 -15 -29 -16 -12 -29 21 -14
97 -41 141 -50 62 -13 251 -45 293 -51 25 -3 59 -8 75 -11 17 -2 39 -6 50 -8
11 -1 38 -5 60 -8 41 -6 113 -15 265 -32 65 -7 98 -11 205 -24 117 -15 178
-21 335 -36 36 -3 87 -8 113 -11 27 -3 67 -7 90 -9 23 -1 67 -6 97 -9 30 -3
82 -8 115 -11 56 -4 110 -10 210 -20 22 -2 74 -7 115 -10 41 -3 86 -8 100 -10
14 -2 66 -7 115 -11 50 -3 97 -8 106 -9 15 -3 64 -8 214 -20 28 -3 88 -7 135
-10 47 -4 101 -8 121 -10 19 -2 76 -7 125 -10 49 -3 100 -8 114 -10 14 -2 68
-6 120 -10 52 -3 115 -8 140 -10 25 -3 77 -7 115 -10 67 -5 127 -10 245 -20
30 -3 84 -7 120 -10 114 -8 204 -15 255 -20 48 -4 141 -11 270 -20 78 -5 205
-14 275 -20 30 -3 96 -7 145 -10 50 -3 110 -7 135 -10 57 -6 178 -14 440 -30
63 -4 123 -11 133 -16 12 -7 17 -23 18 -57 1 -26 3 -74 4 -107 8 -164 23 -867
30 -1405 18 -1411 31 -1847 71 -2360 2 -30 6 -89 9 -130 5 -71 10 -129 20
-210 2 -19 7 -69 11 -110 4 -41 8 -82 9 -90 1 -8 5 -46 10 -85 4 -38 9 -77 10
-85 5 -27 18 -125 20 -150 1 -14 5 -38 8 -55 4 -16 9 -50 12 -75 3 -25 10 -67
15 -95 5 -27 11 -66 14 -86 3 -20 8 -42 10 -50 3 -8 7 -30 10 -49 8 -47 15
-86 27 -140 6 -25 12 -53 14 -62 15 -71 61 -222 82 -266 35 -73 57 -71 72 9
18 90 21 148 36 824 17 759 28 1089 50 1515 5 94 10 191 20 385 3 55 7 134 10
175 3 41 7 119 10 172 7 147 15 286 20 353 2 33 7 114 10 180 4 66 8 145 10
175 2 30 7 111 10 180 4 69 8 150 10 180 22 372 67 1332 67 1433 l0 39 107 -7
c59 -3 132 -8 162 -10 30 -2 97 -7 149 -10 52 -3 120 -7 150 -10 30 -2 98 -7
150 -10 52 -3 120 -8 150 -10 30 -2 100 -7 155 -10 55 -3 118 -8 140 -10 22
-2 94 -7 160 -10 66 -4 143 -8 170 -10 28 -2 95 -7 150 -10 55 -3 127 -8 160
-10 33 -2 105 -7 160 -10 55 -3 125 -8 155 -10 30 -3 105 -7 165 -10 61 -4
135 -8 165 -10 30 -2 100 -7 155 -10 55 -3 132 -8 170 -10 39 -3 104 -7 145
-10 41 -2 116 -6 165 -10 50 -3 122 -7 160 -10 39 -2 108 -7 155 -10 47 -3
128 -7 180 -10 52 -3 127 -8 165 -10 39 -2 120 -7 181 -10 62 -3 143 -8 180
-10 38 -3 116 -7 174 -10 104 -4 245 -12 370 -20 36 -2 117 -7 180 -11 63 -4
126 -8 140 -10 14 -1 38 -2 53 -3 18 -1 39 -12 57 -30 23 -26 27 -40 29 -93 1
-35 4 -81 5 -103 2 -22 7 -92 11 -155 4 -63 8 -131 10 -150 2 -19 6 -79 10
-133 3 -54 8 -106 10 -115 1 -9 6 -66 10 -127 3 -60 8 -117 10 -125 2 -8 7
-51 10 -95 3 -44 8 -96 10 -115 2 -19 7 -66 10 -105 4 -38 8 -81 10 -95 2 -14
7 -52 10 -85 3 -33 8 -76 10 -95 3 -19 7 -53 10 -75 2 -22 11 -96 19 -165 9
-69 18 -147 21 -175 3 -27 8 -61 10 -75 3 -14 7 -47 10 -75 4 -27 10 -77 15
-110 5 -33 12 -80 15 -105 3 -25 12 -83 20 -130 7 -47 17 -110 20 -140 4 -30
8 -57 10 -60 2 -3 6 -26 10 -50 5 -39 36 -217 49 -290 3 -14 10 -54 16 -90 6
-36 19 -105 30 -155 10 -49 22 -106 25 -125 3 -19 12 -63 20 -96 8 -34 16 -73
19 -85 54 -276 205 -833 273 -1009 13 -36 34 -90 46 -120 30 -77 102 -216 133
-257 38 -50 82 -75 119 -67 17 4 62 29 102 57 l72 50 87 -6 c47 -3 88 -8 91
-11 3 -2 18 0 34 6 53 18 62 54 61 223 -2 143 -4 184 -17 279 -33 241 -34 250
-45 321 -5 33 -12 78 -15 100 -10 66 -15 97 -25 155 -13 73 -18 106 -25 160
-3 25 -12 83 -20 130 -8 47 -16 103 -20 125 -3 22 -12 81 -20 130 -7 50 -17
110 -20 135 -7 52 -12 84 -25 160 -5 30 -12 73 -15 95 -3 22 -10 67 -15 100
-11 75 -15 104 -34 240 -25 179 -26 189 -31 220 -14 93 -13 84 -50 385 -14
113 -28 219 -30 236 -2 16 -7 59 -11 95 -3 35 -7 66 -9 69 -2 3 -6 46 -10 95
-3 50 -8 97 -10 105 -2 8 -7 47 -11 85 -3 39 -7 81 -9 95 -2 14 -6 57 -10 95
-3 39 -8 85 -11 103 -2 19 -7 66 -10 105 -3 39 -8 76 -11 81 -4 5 0 6 8 1 13
-8 297 -236 349 -281 25 -21 368 -305 404 -334 10 -8 23 -20 30 -25 12 -11
237 -199 270 -226 19 -15 18 -18 -41 -120 -146 -255 -257 -557 -322 -875 -46
-229 -56 -334 -56 -634 0 -225 7 -314 36 -472 5 -32 12 -70 15 -85 11 -60 57
-229 65 -238 5 -5 9 -17 9 -28 0 -31 103 -237 163 -328 168 -251 354 -390 615
-459 104 -28 314 -30 602 -5 112 10 166 16 188 21 12 2 44 7 70 10 50 5 91 11
132 19 14 3 41 7 60 10 19 3 96 19 170 36 287 64 580 165 835 290 200 98 240
123 412 251 72 54 137 98 143 98 9 0 119 -79 185 -132 44 -36 488 -370 630
-474 144 -106 341 -224 373 -224 39 0 -45 113 -219 295 -74 77 -275 280 -447
450 l-313 311 19 24 c164 212 277 466 307 690 11 79 12 236 3 300 -5 30 -10
69 -13 85 -16 105 -81 280 -153 412 -98 178 -240 335 -467 515 -66 52 -133
103 -150 114 -16 10 -32 21 -35 24 -11 12 -151 91 -275 155 -134 69 -156 85
-151 113 2 10 7 43 10 75 7 50 16 68 71 143 71 94 76 117 36 172 -65 92 -341
225 -556 268 -165 33 -213 38 -410 38 -227 1 -251 -2 -427 -45 -226 -55 -494
-190 -666 -336 -28 -25 -56 -43 -61 -41 -8 3 -145 123 -180 159 -9 8 -88 80
-176 159 -193 173 -330 296 -366 330 -15 14 -42 38 -60 54 -52 45 -332 298
-350 315 -27 26 -180 164 -210 190 -37 31 -36 38 4 35 17 -1 93 -5 167 -9 74
-3 167 -8 205 -10 39 -2 131 -7 205 -10 74 -3 169 -8 210 -10 41 -2 136 -7
210 -10 74 -3 176 -8 225 -10 50 -3 153 -7 230 -10 77 -3 178 -7 225 -10 47
-2 150 -7 230 -10 80 -4 179 -8 220 -10 41 -2 145 -7 230 -10 85 -3 196 -8
245 -10 150 -8 405 -17 850 -30 105 -3 255 -8 335 -10 863 -27 2151 -27 2322
0 13 2 57 6 98 10 97 8 153 16 234 35 78 17 141 48 158 78 13 23 14 33 4 67
-7 22 -20 54 -28 70 -9 17 -20 47 -26 68 -10 35 -7 44 34 123 66 124 56 145
-81 192 -98 33 -301 71 -470 88 -22 2 -60 6 -85 9 -58 7 -109 12 -190 20 -36
3 -85 8 -110 11 -25 2 -72 6 -105 9 -33 3 -85 7 -115 10 -96 8 -301 24 -400
30 -30 2 -98 6 -150 10 -52 3 -126 8 -165 10 -38 3 -107 7 -153 10 -46 4 -116
8 -155 10 -40 2 -111 6 -157 9 -47 3 -137 8 -200 11 -63 3 -155 8 -205 11 -87
5 -157 8 -405 19 -153 6 -324 14 -435 20 -122 7 -317 15 -750 30 -88 4 -198 8
-245 10 -47 3 -148 7 -225 10 -77 3 -198 7 -270 10 -152 6 -322 13 -525 20
-80 3 -208 7 -285 10 -300 11 -397 14 -580 20 -241 8 -347 13 -352 19 -8 7
-15 102 -28 381 -6 113 -14 273 -20 370 -5 92 -12 254 -20 450 -2 61 -7 162
-10 225 -2 63 -7 195 -10 293 -4 98 -8 224 -10 280 -2 56 -7 199 -10 317 -3
118 -8 274 -10 345 -4 126 -13 529 -20 825 -2 80 -6 287 -10 461 -4 189 -3
319 2 322 9 6 180 12 593 22 96 2 281 7 410 10 129 3 314 8 410 10 96 2 261 6
365 10 105 3 269 7 365 10 555 16 918 30 1070 40 36 3 103 7 150 10 47 3 114
8 150 10 36 3 103 7 150 10 47 3 114 7 150 10 36 3 108 7 160 10 52 3 124 7
160 10 139 10 219 15 310 20 52 3 120 8 150 10 52 4 226 14 350 20 426 23
1354 22 1505 -1 17 -2 100 -7 186 -10 120 -5 158 -4 164 6 29 47 -371 204
-625 246 -19 3 -38 8 -41 10 -4 2 -28 6 -55 9 -27 3 -65 10 -84 15 -19 5 -53
11 -75 14 -36 4 -127 19 -195 30 -14 3 -54 7 -89 11 -36 3 -79 8 -95 10 -77
10 -348 31 -526 41 -52 2 -124 7 -160 9 -105 6 -769 23 -997 25 l-61 0 -33 57
c-99 177 -349 526 -707 988 l-124 160 29 22 c15 13 53 40 83 60 98 67 491 354
645 472 139 107 658 520 715 570 275 241 421 396 449 480 13 41 14 101 2 135
-6 13 -37 61 -71 107 -34 45 -83 128 -109 184 -26 56 -58 109 -69 117 -34 23
-130 22 -202 -2 -73 -24 -202 -88 -278 -136 -29 -19 -55 -34 -57 -34 -7 0
-269 -185 -345 -244 -74 -57 -292 -231 -330 -262 -14 -12 -70 -59 -125 -105
-82 -69 -512 -438 -551 -474 -125 -114 -277 -245 -284 -245 -5 0 -74 91 -237
315 -57 77 -106 145 -110 150 -27 34 -206 294 -291 421 -105 157 -162 248
-345 549 -180 295 -249 385 -329 426 -54 28 -99 24 -223 -20 -61 -21 -137 -41
-170 -45 -112 -14 -130 -18 -158 -38 -104 -74 -71 -346 87 -707 114 -262 378
-680 598 -946 9 -11 60 -74 114 -140 98 -121 213 -252 334 -379 73 -77 80 -84
98 -108 11 -14 -1 -27 -101 -110 -62 -51 -131 -106 -152 -123 -21 -16 -43 -35
-49 -40 -28 -26 -232 -179 -341 -256 -167 -118 -301 -206 -452 -295 -230 -136
-245 -158 -153 -217 57 -37 255 -53 385 -33 230 36 440 96 630 180 28 13 66
29 85 36 36 14 378 187 460 232 153 84 199 108 211 108 8 0 26 -10 40 -23 15
-12 51 -42 80 -67 30 -25 90 -77 134 -115 119 -105 330 -275 510 -413 88 -67
165 -125 170 -129 6 -5 23 -17 40 -27 26 -17 27 -20 11 -26 -25 -8 -424 -2
-901 15 -121 4 -364 11 -680 20 -93 3 -237 7 -320 10 -82 2 -233 7 -335 10
-102 3 -257 8 -345 10 -88 3 -290 7 -449 10 -160 3 -292 8 -295 11 -3 3 -6 51
-7 107 -1 56 -5 275 -9 487 -3 212 -8 444 -10 515 -16 616 -21 792 -30 1010
-10 249 -23 519 -30 640 -2 44 -7 125 -10 179 -3 55 -7 120 -10 145 -2 25 -7
89 -10 141 -3 52 -8 113 -10 135 -2 22 -7 69 -10 105 -6 62 -11 103 -20 180
-6 45 -27 182 -30 195 -1 6 -6 28 -10 50 -9 50 -36 107 -53 113 -22 7 -65
-133 -87 -288 -3 -25 -8 -57 -10 -73 -2 -15 -9 -64 -15 -110 -6 -45 -12 -95
-15 -112 -2 -16 -6 -61 -10 -100 -3 -38 -8 -81 -10 -95 -3 -14 -7 -61 -10
-105 -3 -44 -8 -96 -10 -115 -2 -19 -7 -66 -10 -105 -3 -38 -8 -86 -10 -105
-2 -19 -7 -73 -10 -120 -3 -47 -8 -105 -10 -130 -2 -25 -7 -83 -10 -130 -3
-47 -8 -103 -10 -125 -2 -22 -7 -78 -10 -125 -3 -47 -8 -111 -10 -142 -12
-146 -15 -178 -20 -258 -3 -47 -7 -110 -10 -140 -3 -30 -7 -95 -10 -145 -3
-49 -8 -112 -10 -140 -2 -27 -7 -90 -10 -140 -3 -49 -8 -119 -10 -155 -3 -36
-7 -103 -10 -150 -3 -47 -7 -119 -10 -160 -9 -148 -19 -332 -30 -540 -9 -166
-9 -164 -24 -171 -20 -8 -254 -5 -1121 16 -495 12 -1144 23 -2370 40 -173 2
-486 7 -695 10 -209 3 -530 7 -714 10 -183 2 -335 6 -338 9 -2 2 -6 57 -8 123
-6 179 -17 475 -30 823 -7 172 -20 490 -30 700 -2 52 -7 154 -10 225 -3 72 -7
157 -10 190 -3 33 -7 116 -10 185 -3 69 -7 152 -10 185 -2 33 -7 101 -10 150
-3 50 -7 119 -10 155 -3 36 -7 105 -10 154 -4 49 -8 107 -10 130 -2 22 -6 77
-10 121 -3 44 -7 96 -10 115 -2 19 -7 71 -10 115 -3 44 -8 89 -10 100 -2 11
-7 49 -10 85 -6 65 -7 74 -19 165 -32 240 -79 457 -119 546 -47 105 -98 124
-204 74 -84 -40 -126 -42 -204 -11 -36 14 -77 26 -91 26 -25 0 -56 -27 -76
-65 -17 -34 -40 -136 -47 -210 -4 -38 -9 -72 -10 -75 -3 -5 -13 -160 -21 -330
-4 -89 -4 -1016 1 -1220 7 -367 19 -766 30 -1070 3 -74 7 -214 11 -310 3 -96
7 -213 9 -260 14 -380 16 -460 9 -460 -4 0 -36 26 -73 58 -36 31 -77 67 -91
78 -14 12 -48 41 -75 65 -28 24 -80 69 -115 100 -36 31 -108 93 -160 139 -112
97 -98 85 -325 280 -99 85 -185 159 -191 165 -6 6 -35 31 -64 56 -107 90 -97
74 -104 184 -7 123 -12 154 -42 275 -58 231 -180 501 -329 725 -43 66 -82 122
-85 125 -3 3 -16 20 -29 37 -38 56 -185 229 -265 314 -72 77 -87 101 -67 113
9 6 27 71 37 133 7 45 44 132 67 154 61 62 80 125 53 177 -38 74 -217 174
-411 230 -135 40 -244 54 -425 56 -157 2 -187 -1 -305 -26 -123 -26 -205 -49
-250 -68 -11 -5 -49 -21 -85 -36 -36 -16 -102 -48 -147 -71 l-82 -43 -62 57
c-116 107 -479 476 -706 718 -119 127 -295 331 -398 460 -22 28 -42 52 -45 55
-3 3 -55 70 -114 150 -121 162 -253 359 -371 555 -148 245 -198 298 -258 276z
m3157 -2899 c172 -279 324 -558 400 -737 42 -97 88 -226 83 -232 -2 -1 -17 8
-33 21 -315 258 -309 252 -682 624 -156 156 -281 289 -279 295 5 18 148 56
236 63 42 4 77 7 78 8 1 0 39 2 85 3 l83 3 29 -48z m-778 -1051 c369 -362 367
-360 538 -501 77 -63 176 -146 220 -185 45 -38 103 -88 129 -110 26 -22 47
-43 47 -46 0 -10 -173 -53 -260 -63 -25 -4 -63 -9 -85 -12 -22 -4 -164 -8
-315 -9 -312 -3 -369 4 -487 61 -116 56 -208 179 -256 342 -20 69 -22 99 -22
292 1 201 2 221 27 315 29 108 74 250 84 266 8 14 40 -16 380 -350z m9268
-2744 c8 -3 12 -25 11 -64 -2 -57 -14 -353 -20 -488 -4 -83 -16 -426 -20 -540
-1 -44 -6 -188 -11 -320 -5 -132 -9 -810 -9 -1507 0 -698 -1 -1268 -2 -1268
-1 0 -13 10 -25 23 -45 43 -178 162 -313 282 -49 44 -115 102 -145 130 -30 27
-78 70 -106 95 -89 79 -208 185 -224 200 -9 8 -56 51 -106 95 -49 44 -94 85
-100 90 -6 6 -46 42 -90 80 -43 39 -103 93 -133 120 -77 69 -70 63 -146 130
-38 33 -85 75 -104 93 -20 18 -53 47 -73 65 -21 17 -38 37 -38 43 0 7 42 43
92 80 210 156 361 283 488 413 248 252 375 471 415 721 19 114 1 337 -38 465
-43 143 -128 321 -231 480 -63 98 -243 345 -288 395 -66 73 -138 163 -134 167
6 6 164 10 701 18 242 3 440 7 441 8 4 4 197 -2 208 -6z m-1619 -81 c16 -34
63 -131 105 -216 264 -542 342 -758 344 -950 1 -122 -6 -159 -49 -247 -48 -97
-181 -237 -330 -345 -5 -4 -23 -18 -40 -31 -29 -22 -221 -151 -256 -172 -9 -5
-66 -40 -125 -76 -139 -84 -222 -129 -237 -129 -7 0 -25 12 -42 26 -33 28
-344 303 -361 319 -6 5 -44 39 -84 75 -41 36 -140 124 -220 195 -80 72 -170
151 -200 177 -29 26 -52 50 -49 52 30 28 254 162 354 211 115 57 308 125 399
141 17 3 49 9 71 14 22 5 137 25 255 45 381 63 500 102 545 178 14 23 16 41
11 88 -4 32 -11 71 -16 86 -17 49 -18 104 -3 151 7 26 16 71 20 100 5 49 3 56
-23 83 -38 40 -134 74 -264 95 -169 27 -650 26 -790 -1 -64 -12 -78 -15 -114
-20 -273 -39 -702 -238 -1020 -473 -50 -38 -97 -71 -104 -76 -7 -4 -26 2 -45
15 -26 19 -211 174 -253 214 -6 5 -44 39 -84 75 -40 36 -78 70 -84 75 -6 6
-47 42 -91 80 -92 80 -127 111 -203 180 -30 28 -64 56 -74 64 -15 10 -17 16
-8 21 15 10 86 11 775 15 610 3 1849 16 1852 18 1 1 93 2 205 3 l204 1 29 -61z
m-3357 -878 c86 -72 159 -134 162 -137 3 -3 46 -40 95 -81 50 -41 92 -77 95
-80 3 -3 32 -28 65 -55 33 -28 76 -65 95 -82 19 -18 38 -33 43 -33 16 0 12
-13 -68 -185 -66 -142 -115 -290 -140 -420 -25 -137 -26 -402 -1 -524 96 -468
385 -795 818 -925 123 -37 198 -48 349 -50 211 -4 339 15 559 81 147 44 388
155 523 240 l39 24 33 -25 c18 -14 39 -31 47 -38 7 -7 148 -126 313 -264 165
-138 347 -290 405 -339 58 -48 169 -141 248 -207 78 -65 142 -122 142 -126 0
-4 -39 -6 -87 -6 -103 2 -595 14 -768 19 -112 3 -324 9 -700 20 -152 4 -281 8
-820 20 -710 17 -1218 27 -1405 29 l-164 2 -2 289 c-5 806 -16 1634 -29 2115
-2 96 -7 306 -11 465 -3 160 -7 316 -8 348 0 31 3 57 7 57 5 0 79 -59 165
-132z m1458 -1234 c152 -125 352 -293 390 -329 6 -6 41 -35 78 -65 l67 -54
-25 -13 c-30 -16 -171 -49 -244 -58 -84 -10 -183 -8 -243 4 -67 14 -163 68
-201 114 -63 73 -92 221 -69 351 14 81 49 196 59 196 5 0 89 -66 188 -146z
m7522 -4667 c136 -82 413 -277 504 -353 179 -152 358 -348 437 -482 150 -252
172 -493 66 -717 -37 -77 -119 -196 -148 -215 -27 -16 -19 -23 -284 227 -70
66 -147 138 -169 159 -180 167 -244 227 -264 244 -12 11 -74 68 -138 127 -64
59 -123 115 -132 123 -9 8 -43 40 -76 70 -73 68 -268 247 -309 285 -140 128
-252 232 -344 317 -59 55 -62 60 -47 77 46 50 269 151 381 172 27 5 61 12 75
14 14 3 72 8 130 12 58 3 106 6 107 7 1 1 26 0 55 -1 45 -3 69 -13 156 -66z
m-933 -817 c165 -134 334 -271 375 -304 41 -33 80 -65 87 -71 7 -5 18 -15 25
-20 23 -18 172 -139 193 -157 16 -13 109 -88 175 -141 8 -7 74 -59 145 -117
72 -57 155 -124 185 -148 30 -24 64 -52 75 -61 11 -9 54 -43 95 -76 102 -81
120 -97 120 -106 0 -12 -251 -131 -350 -167 -163 -59 -312 -101 -440 -126 -14
-3 -50 -10 -80 -16 -90 -18 -143 -25 -245 -35 -33 -4 -66 -8 -73 -11 -25 -8
-276 -18 -468 -18 l-191 -1 -30 31 c-87 87 -154 277 -179 509 -9 83 -9 355 0
440 21 199 87 468 156 640 49 122 101 217 114 207 6 -5 146 -118 311 -252z"/>
<path d="M7703 16200 c-21 -9 -71 -38 -111 -64 -39 -26 -118 -69 -175 -95
-140 -66 -168 -100 -160 -195 12 -154 180 -468 393 -736 128 -161 220 -265
395 -448 55 -57 103 -110 107 -117 5 -7 -8 -27 -35 -52 -237 -223 -408 -461
-450 -623 -17 -64 -15 -143 3 -165 27 -32 72 -15 424 159 345 171 435 214 508
243 l36 15 74 -59 c41 -32 85 -66 99 -76 13 -9 60 -43 104 -75 106 -77 375
-262 381 -262 3 0 24 -13 47 -28 100 -68 413 -237 557 -300 241 -107 384 -138
446 -97 22 14 25 22 21 51 -9 52 -77 168 -160 271 -59 74 -184 220 -207 243
-3 3 -20 23 -39 45 -19 22 -76 86 -128 142 -52 56 -102 110 -111 121 -9 10
-69 75 -133 143 -146 156 -179 194 -179 207 0 5 15 15 33 22 17 7 60 26 95 42
35 15 65 28 67 28 6 0 290 127 400 180 235 111 346 170 555 290 209 121 396
282 444 385 48 99 35 146 -74 275 -39 47 -85 108 -101 135 -53 93 -116 163
-154 174 -85 23 -216 -19 -494 -158 -138 -69 -340 -174 -396 -206 -183 -102
-252 -141 -266 -150 -9 -5 -35 -20 -57 -33 -45 -24 -401 -239 -524 -316 -42
-26 -81 -45 -87 -41 -16 9 -224 260 -429 515 -226 282 -223 278 -324 396 -170
200 -287 263 -395 214z"/>
<path d="M5085 11575 c-93 -21 -306 -99 -440 -160 -341 -157 -543 -254 -945
-456 -489 -246 -575 -290 -840 -436 -85 -47 -158 -87 -161 -89 -21 -12 -241
259 -366 450 -194 295 -217 327 -255 362 -50 45 -81 56 -148 56 -51 -1 -75 -4
-140 -17 -14 -3 -56 -7 -95 -10 -197 -14 -231 -17 -248 -27 -10 -5 -30 -34
-44 -64 -36 -80 -35 -215 3 -381 54 -233 240 -563 444 -786 29 -32 51 -59 49
-61 -2 -1 -53 -36 -114 -76 -638 -424 -1057 -806 -1238 -1127 -79 -139 -105
-277 -58 -302 23 -13 70 10 216 107 303 199 902 508 1470 757 17 7 92 41 168
74 l139 61 141 -99 c148 -103 240 -164 634 -421 395 -258 564 -384 798 -595
150 -136 171 -149 211 -139 80 20 79 232 -3 439 -63 159 -126 266 -272 460
-106 140 -181 223 -434 481 -122 123 -222 229 -222 235 0 5 56 34 125 64 69
30 134 59 145 64 11 5 103 47 205 92 102 45 221 98 265 119 44 20 114 52 155
70 326 147 862 434 995 532 221 165 305 264 305 358 0 50 -18 86 -83 162 -23
27 -66 99 -97 160 -31 64 -66 120 -82 131 -34 25 -105 30 -183 12z"/>
<path d="M15979 11306 c-2 -2 -32 -7 -65 -10 -197 -20 -443 -95 -671 -206
-225 -110 -351 -190 -558 -356 -89 -71 -332 -310 -397 -390 -18 -23 -43 -54
-56 -70 -34 -42 -145 -210 -181 -274 -74 -129 -150 -313 -193 -465 -18 -67
-22 -105 -22 -240 -1 -140 2 -169 23 -235 97 -313 333 -512 662 -558 81 -12
343 -7 414 7 85 17 297 72 315 82 8 4 51 20 95 35 84 30 434 202 520 256 202
128 493 332 525 367 3 3 48 44 100 91 267 238 443 448 561 670 120 225 144
413 70 558 -22 43 -118 142 -138 142 -28 0 -19 23 37 92 74 90 82 121 47 181
-74 126 -308 245 -597 303 -77 15 -479 32 -491 20z m911 -815 c0 -81 -69 -188
-211 -328 -177 -174 -425 -348 -729 -511 -36 -19 -92 -49 -125 -67 -184 -100
-586 -257 -716 -280 -18 -3 -35 -8 -39 -10 -4 -2 -20 -6 -36 -9 -122 -21 -172
-26 -262 -26 -82 0 -104 3 -108 15 -4 8 8 51 26 95 101 250 389 563 713 774
102 67 295 166 381 197 34 12 79 28 101 36 34 13 203 50 315 70 19 4 153 6
298 6 145 -1 278 3 296 8 18 5 43 20 56 34 30 32 40 32 40 -4z"/>
<path d="M2215 6427 c-52 -55 -65 -110 -61 -257 4 -103 7 -124 27 -205 31
-121 117 -320 187 -433 61 -96 169 -243 247 -333 l83 -95 -81 -60 c-682 -499
-1112 -939 -1234 -1263 -26 -70 -36 -156 -21 -184 18 -34 90 -7 224 84 40 26
87 57 105 67 19 11 94 57 168 102 153 94 322 190 466 267 177 95 940 473 954
473 13 0 110 -57 121 -71 27 -35 834 -529 865 -529 2 0 39 -21 82 -46 107 -64
555 -286 650 -322 43 -17 107 -33 143 -37 64 -7 66 -6 80 19 46 88 -118 365
-378 637 -159 166 -498 499 -656 644 -42 39 -76 73 -76 76 0 7 224 105 435
191 66 27 129 53 140 58 11 5 112 46 225 90 113 44 214 85 225 90 11 5 99 38
195 74 447 166 653 262 705 330 24 32 46 113 40 145 -4 20 -19 174 -18 181 5
28 15 183 14 210 -4 84 -126 135 -316 131 -110 -2 -316 -33 -440 -66 -33 -9
-67 -18 -76 -20 -30 -6 -284 -85 -304 -94 -11 -5 -112 -45 -225 -89 -305 -120
-699 -304 -985 -461 -33 -18 -85 -47 -115 -64 -30 -16 -73 -40 -95 -53 -49
-28 -46 -30 -160 106 -123 146 -205 261 -369 523 -77 123 -140 190 -192 207
-39 13 -46 13 -279 10 -82 -1 -174 1 -204 4 -54 6 -54 6 -96 -37z"/>
<path d="M9701 6121 c-17 -11 -8 -40 40 -119 l38 -62 -77 7 c-140 13 -377 8
-512 -11 -132 -18 -325 -69 -470 -123 -131 -49 -388 -176 -467 -230 -10 -7
-49 -33 -86 -58 -148 -97 -285 -212 -421 -353 -101 -104 -115 -120 -210 -247
-184 -245 -301 -479 -367 -732 -38 -146 -38 -145 -45 -218 -3 -33 -8 -71 -10
-85 -6 -32 -5 -274 1 -320 10 -74 32 -188 50 -250 37 -135 113 -296 207 -437
87 -131 313 -363 428 -438 115 -76 291 -142 430 -162 102 -15 416 -7 471 11 8
3 33 7 56 10 23 3 72 12 110 21 37 9 76 18 85 20 51 11 333 111 426 151 554
240 1066 582 1312 875 138 165 246 415 267 619 16 159 5 371 -27 530 -18 87
-68 257 -89 305 -5 11 -26 58 -47 105 -48 110 -137 282 -175 336 -16 23 -29
46 -29 49 0 4 16 26 35 49 43 53 45 89 7 142 -83 113 -230 223 -403 300 -35
16 -84 47 -109 70 -119 111 -249 201 -336 234 -62 23 -64 23 -83 11z m195
-1034 c5 -3 27 -8 49 -11 34 -5 194 -35 273 -51 49 -9 60 -17 75 -48 17 -35
74 -224 83 -271 3 -16 6 -32 8 -35 2 -3 7 -22 10 -41 3 -19 7 -44 10 -55 36
-182 19 -434 -40 -579 -73 -180 -168 -265 -554 -495 -58 -34 -293 -149 -390
-190 -41 -18 -84 -36 -95 -41 -48 -21 -217 -80 -300 -105 -49 -14 -103 -30
-120 -35 -116 -35 -248 -53 -390 -54 -180 -1 -212 10 -301 101 -115 118 -192
251 -218 376 -13 61 -15 251 -3 302 86 373 367 731 767 977 88 55 194 110 285
148 37 16 210 69 255 79 25 5 59 13 75 16 71 15 171 21 336 19 97 -1 181 -4
185 -7z"/>
</g>
</svg>
